<svg id="Layer_1" data-name="Layer 1" xmlns="http://www.w3.org/2000/svg" viewBox="0 0 441.51 164.8"><defs><style>.cls-1{fill:#fff;}.cls-2{fill:#41bdef;}.cls-3{fill:#f96bd8;}.cls-4{fill:#9e9e9e;}</style></defs><title>pijin-logo</title><rect class="cls-1" x="-8.49" y="-8.2" width="458" height="181"/><path class="cls-2" d="M248.13,39.56a24.31,24.31,0,0,1-.85,8.15l-3.13,11.16,0,.13a19.17,19.17,0,0,1,18.89-8A15.82,15.82,0,0,0,248.13,39.56Z"/><path class="cls-1" d="M248.61,80.32c-21.13,7.12-34.76-19.9-61.31-10.26L189.57,62c24.46-8.88,36.66,16.21,56.17,9.63Z"/><path class="cls-3" d="M245.66,71.61l-4.2-12.75,3.13-11.16a24.6,24.6,0,0,0-17-30.24h0a24.6,24.6,0,0,0-30.24,17l-7.68,27.46C214,53.15,226.22,78.09,245.66,71.61Zm-23-36.08a4,4,0,1,1-4,4A4,4,0,0,1,222.62,35.53Z"/><path class="cls-2" d="M248.53,80.34c-21.06,7-34.68-19.85-61.13-10.32l-3.84,13.72c30.25-11,46.43,19.84,70.05,12Z"/><path class="cls-4" d="M177.35,116.51a9.32,9.32,0,0,1,3.08,7.48q0,5-3.08,7.68t-8.76,2.71h-9v10.25h-1.85V113.87H168.6Q174.27,113.87,177.35,116.51ZM176,130.34a7.79,7.79,0,0,0,2.64-6.31,7.55,7.55,0,0,0-2.64-6.2q-2.64-2.16-7.48-2.16h-8.93v16.9h8.93Q173.39,132.57,176,130.34Z"/><path class="cls-4" d="M192.36,113.87h1.85v30.75h-1.85Z"/><path class="cls-4" d="M218.82,142.35a7.57,7.57,0,0,1-5.92,2.31,9.06,9.06,0,0,1-4.4-1.1,10.81,10.81,0,0,1-3.56-3.21l1-1.45a9.62,9.62,0,0,0,3.17,2.88,7.75,7.75,0,0,0,3.78,1,5.73,5.73,0,0,0,4.58-1.83,7.79,7.79,0,0,0,1.58-5.26v-20H207.75v-1.8h13.16v21.87Q220.91,140,218.82,142.35Z"/><path class="cls-4" d="M236.09,113.87h1.85v30.75h-1.85Z"/><path class="cls-4" d="M276.57,113.87h1.8v30.75h-2.16l-20.5-28v28h-1.85V113.87H256l20.55,28Z"/></svg>